<svg xmlns="http://www.w3.org/2000/svg" viewBox="0 0 107 107"><defs><style>.cls-1{fill:none;stroke:#231f20;stroke-miterlimit:10;stroke-width:7px;opacity:0;}.cls-2{fill:#231f20;}</style></defs><title>Asset 2</title><g id="Layer_2" data-name="Layer 2"><g id="Layer_1-2" data-name="Layer 1"><rect class="cls-1" x="3.5" y="3.5" width="100" height="100" rx="17.5"/><path class="cls-2" d="M53.5,20.48a33,33,0,1,0,33,33A33,33,0,0,0,53.5,20.48ZM67.3,54.55a1.77,1.77,0,0,1-1.86,1.84H56.38v9.09a1.61,1.61,0,0,1-1.62,1.82H52.26a1.63,1.63,0,0,1-1.66-1.83V56.38H41.53a1.61,1.61,0,0,1-1.83-1.62V52.28a1.63,1.63,0,0,1,1.83-1.67h9.09V41.72c0-.42.14-2,1.77-2h2.17a1.76,1.76,0,0,1,1.83,1.86v9h8.89c.42,0,2,.15,2,1.77v2.17Z"/></g></g></svg>