<svg xmlns="http://www.w3.org/2000/svg" viewBox="0 0 107 107"><defs><style>.cls-1{fill:#010101;}.cls-2{fill:none;stroke:#010101;stroke-miterlimit:10;stroke-width:7px;opacity:0;}</style></defs><title>Asset 8</title><g id="Layer_2" data-name="Layer 2"><g id="Layer_1-2" data-name="Layer 1"><path class="cls-1" d="M72.08,31.51A14.22,14.22,0,0,1,74.64,40a12.44,12.44,0,0,1-2.59,8.23,13.29,13.29,0,0,1-4.26,3.18,12.45,12.45,0,0,1,6.45,4.93,14.8,14.8,0,0,1,2.18,8.19,16.34,16.34,0,0,1-2.49,8.91,15.47,15.47,0,0,1-4,4.4,15.32,15.32,0,0,1-6.31,2.8,38.45,38.45,0,0,1-7.9.76H30.58V25.56h27Q67.82,25.71,72.08,31.51ZM41.73,35.26V47.59H55.31a11.24,11.24,0,0,0,5.91-1.39c1.52-.92,2.27-2.56,2.27-4.91q0-3.9-3-5.15a20.78,20.78,0,0,0-6.6-.88Zm0,21.58v14.9H55.3a13.15,13.15,0,0,0,5.66-1c2.45-1.21,3.67-3.54,3.67-7,0-2.91-1.18-4.91-3.56-6a13.92,13.92,0,0,0-5.58-.95Z"/><rect class="cls-2" x="3.5" y="3.5" width="100" height="100" rx="17.5"/></g></g></svg>