<svg xmlns="http://www.w3.org/2000/svg" viewBox="0 0 107 107"><defs><style>.cls-1{fill:#3a66af;}.cls-2{fill:none;stroke:#3a66af;stroke-miterlimit:10;stroke-width:7px;opacity:0;}</style></defs><title>Asset 4</title><g id="Layer_2" data-name="Layer 2"><g id="Layer_1-2" data-name="Layer 1"><path class="cls-1" d="M35.46,30H46V59.63c0,13.29-6.41,18-16.55,18a26.4,26.4,0,0,1-7.73-1.08L22.9,68a17.48,17.48,0,0,0,5.44.86c4.48,0,7.24-2.06,7.24-9.18L35.46,30Z"/><path class="cls-1" d="M55.3,66A27,27,0,0,0,67,69c4.85,0,7.36-2.06,7.36-5.19,0-2.92-2.18-4.61-7.86-6.54-7.73-2.79-12.92-7.12-12.92-14,0-7.86,6.78-13.91,17.78-13.91a27,27,0,0,1,12,2.43l-2.43,8.47A22.45,22.45,0,0,0,71.26,38c-4.6,0-6.75,2.18-6.75,4.48,0,3,2.55,4.36,8.69,6.67,8.23,3,12.09,7.36,12.09,14,0,7.86-5.92,14.52-18.85,14.52-5.31,0-10.65-1.44-13.29-2.92Z"/><rect class="cls-2" x="3.5" y="3.5" width="100" height="100" rx="17.5"/></g></g></svg>