<svg xmlns="http://www.w3.org/2000/svg" viewBox="0 0 107 107"><defs><style>.cls-1{fill:#4dc8ed;}.cls-2{fill:none;stroke:#49c8f5;stroke-miterlimit:10;stroke-width:7px;opacity:0;}</style></defs><title>Asset 7</title><g id="Layer_2" data-name="Layer 2"><g id="Layer_1-2" data-name="Layer 1"><circle class="cls-1" cx="53.51" cy="53.43" r="6.57"/><path class="cls-1" d="M53.51,68.47c-9.22,0-17.28-1.08-23.31-3.15a29.41,29.41,0,0,1-9.6-5.14c-2.52-2.15-3.85-4.49-3.85-6.75,0-4.35,4.76-8.6,12.76-11.37,6.54-2.28,15.07-3.55,24-3.55S70.68,39.74,77.18,42a30,30,0,0,1,9.29,4.9c2.47,2.06,3.78,4.33,3.78,6.54,0,4.51-5.32,9.08-13.91,11.92C70.27,67.36,62.16,68.47,53.51,68.47Zm0-26.82c-8.46,0-16.83,1.23-23,3.36C23.2,47.58,19.9,51.09,19.9,53.43s3.55,6.26,11.32,8.92c5.7,1.95,13.42,3,22.29,3,8.32,0,16.08-1,21.85-3,8.07-2.68,11.76-6.51,11.76-8.93,0-1.25-.94-2.71-2.65-4.14A27,27,0,0,0,76.17,45,72.38,72.38,0,0,0,53.51,41.65Z"/><path class="cls-1" d="M38.61,86.16a6.93,6.93,0,0,1-3.5-.86c-3.76-2.17-5.07-8.43-3.48-16.74,1.29-6.81,4.46-14.82,8.92-22.55s9.64-14.26,14.83-18.77a29.72,29.72,0,0,1,8.89-5.6c3-1.12,5.64-1.12,7.55,0,3.91,2.25,5.2,9.16,3.37,18C73.9,45.9,70.81,53.48,66.49,61c-4.6,8-9.58,14.41-14.38,18.61a29.79,29.79,0,0,1-9.25,5.75A12.72,12.72,0,0,1,38.61,86.16ZM41.9,46.79l1.36.79C39,54.91,35.9,62.77,34.7,69.15c-1.45,7.66-.05,12.26,2,13.43a4,4,0,0,0,2,.44c2.61,0,6.7-1.65,11.44-5.78,4.54-4,9.28-10.14,13.72-17.82C67.93,52.21,70.89,45,72.12,39c1.71-8.33.23-13.44-1.87-14.65-1.08-.62-2.82-.54-4.91.23a26.67,26.67,0,0,0-7.9,5,72.06,72.06,0,0,0-14.18,18Z"/><path class="cls-1" d="M68.41,86.2c-3.55,0-8.07-2.15-12.78-6.2C50.37,75.47,45,68.73,40.55,61h0a74.91,74.91,0,0,1-8.86-22.24,30,30,0,0,1-.42-10.49c.55-3.18,1.85-5.44,3.77-6.56,3.9-2.26,10.53.07,17.28,6.07C57.11,32,62.13,38.5,66.47,46c4.61,8,7.71,15.51,8.94,21.76a29.91,29.91,0,0,1,.37,10.88c-.6,3.26-2,5.58-3.92,6.72A6.82,6.82,0,0,1,68.41,86.2ZM43.27,59.43c4.24,7.33,9.5,14,14.42,18.19,5.9,5.07,10.58,6.17,12.61,5s3.65-6.21,2-14.27c-1.17-5.91-4.14-13.1-8.59-20.78-4.18-7.21-9-13.4-13.52-17.43-6.36-5.65-11.51-6.92-13.62-5.7-1.07.61-1.87,2.17-2.25,4.37a26.71,26.71,0,0,0,.41,9.35,71.79,71.79,0,0,0,8.49,21.27Z"/><rect class="cls-2" x="3.5" y="3.5" width="100" height="100" rx="17.5"/></g></g></svg>