<svg xmlns="http://www.w3.org/2000/svg" viewBox="0 0 107 107"><defs><style>.cls-1,.cls-3{fill:none;}.cls-2{fill:#81bf41;fill-rule:evenodd;}.cls-3{stroke:#81bf41;stroke-miterlimit:10;stroke-width:7px;opacity:0;}</style></defs><title>Asset 6</title><g id="Layer_2" data-name="Layer 2"><g id="Layer_1-2" data-name="Layer 1"><g id="Shopify"><rect class="cls-1" x="17.5" y="17.5" width="72" height="72"/><path id="Shopify-2" data-name="Shopify" class="cls-2" d="M57.13,28.51v-.75a17,17,0,0,0-.83-5.61c2.05.26,3.41,2.59,4.28,5.28ZM52.61,51.39a12.52,12.52,0,0,0-5.32-1.28c-4.3,0-4.51,2.71-4.51,3.39,0,3.73,9.66,5.16,9.66,13.89,0,6.86-4.33,11.29-10.18,11.29a14.14,14.14,0,0,1-10.6-4.39l1.88-6.23s3.69,3.18,6.8,3.18a2.75,2.75,0,0,0,2.86-2.79c0-4.86-7.93-5.08-7.93-13.07,0-6.72,4.8-13.23,14.49-13.23a11.88,11.88,0,0,1,5.59,1.08ZM51,20a2.15,2.15,0,0,1,1.19.4c-3,1.4-6.13,4.93-7.48,12l-5.64,1.76C40.66,28.75,44.39,20,51,20Zm3.69,8.87v.4l-7.15,2.22c1.38-5.33,4-7.9,6.21-8.88A17.28,17.28,0,0,1,54.71,28.86ZM65.35,26a2.1,2.1,0,0,0-.37.08l-2.14.66c-1.27-3.69-3.53-7.09-7.49-7.09H55a4.82,4.82,0,0,0-3.73-2.15C42,17.5,37.62,29.11,36.24,35l-6.47,2c-2,.64-2.07.7-2.33,2.6C27.24,41.05,22,81.81,22,81.81L62.86,89.5h0Zm2.92,2,2.52,2.51,5.76.43a.71.71,0,0,1,.63.59c0,.36,7.82,53.17,7.82,53.17L65.93,88.83Z"/></g><rect class="cls-3" x="3.5" y="3.5" width="100" height="100" rx="17.5"/></g></g></svg>