<svg version="1.1" id="el_hQSf4ny_5" xmlns="http://www.w3.org/2000/svg" xmlns:xlink="http://www.w3.org/1999/xlink" x="0px" y="0px" viewBox="0 0 300 100" style="enable-background:new 0 0 300 100;" xml:space="preserve"><style>@-webkit-keyframes kf_el_91MpsX5aYz_an_cUfb-VvCt{0%{-webkit-transform: translate(213.14999389648438px, 54.25266647338867px) rotate(0deg) translate(-213.14999389648438px, -54.25266647338867px);transform: translate(213.14999389648438px, 54.25266647338867px) rotate(0deg) translate(-213.14999389648438px, -54.25266647338867px);}25%{-webkit-transform: translate(213.14999389648438px, 54.25266647338867px) rotate(10deg) translate(-213.14999389648438px, -54.25266647338867px);transform: translate(213.14999389648438px, 54.25266647338867px) rotate(10deg) translate(-213.14999389648438px, -54.25266647338867px);}50%{-webkit-transform: translate(213.14999389648438px, 54.25266647338867px) rotate(-10deg) translate(-213.14999389648438px, -54.25266647338867px);transform: translate(213.14999389648438px, 54.25266647338867px) rotate(-10deg) translate(-213.14999389648438px, -54.25266647338867px);}75%{-webkit-transform: translate(213.14999389648438px, 54.25266647338867px) rotate(10deg) translate(-213.14999389648438px, -54.25266647338867px);transform: translate(213.14999389648438px, 54.25266647338867px) rotate(10deg) translate(-213.14999389648438px, -54.25266647338867px);}100%{-webkit-transform: translate(213.14999389648438px, 54.25266647338867px) rotate(0deg) translate(-213.14999389648438px, -54.25266647338867px);transform: translate(213.14999389648438px, 54.25266647338867px) rotate(0deg) translate(-213.14999389648438px, -54.25266647338867px);}}@keyframes kf_el_91MpsX5aYz_an_cUfb-VvCt{0%{-webkit-transform: translate(213.14999389648438px, 54.25266647338867px) rotate(0deg) translate(-213.14999389648438px, -54.25266647338867px);transform: translate(213.14999389648438px, 54.25266647338867px) rotate(0deg) translate(-213.14999389648438px, -54.25266647338867px);}25%{-webkit-transform: translate(213.14999389648438px, 54.25266647338867px) rotate(10deg) translate(-213.14999389648438px, -54.25266647338867px);transform: translate(213.14999389648438px, 54.25266647338867px) rotate(10deg) translate(-213.14999389648438px, -54.25266647338867px);}50%{-webkit-transform: translate(213.14999389648438px, 54.25266647338867px) rotate(-10deg) translate(-213.14999389648438px, -54.25266647338867px);transform: translate(213.14999389648438px, 54.25266647338867px) rotate(-10deg) translate(-213.14999389648438px, -54.25266647338867px);}75%{-webkit-transform: translate(213.14999389648438px, 54.25266647338867px) rotate(10deg) translate(-213.14999389648438px, -54.25266647338867px);transform: translate(213.14999389648438px, 54.25266647338867px) rotate(10deg) translate(-213.14999389648438px, -54.25266647338867px);}100%{-webkit-transform: translate(213.14999389648438px, 54.25266647338867px) rotate(0deg) translate(-213.14999389648438px, -54.25266647338867px);transform: translate(213.14999389648438px, 54.25266647338867px) rotate(0deg) translate(-213.14999389648438px, -54.25266647338867px);}}@-webkit-keyframes kf_el_gFLwCx9ktP_an_wFtgjufbN{0%{-webkit-transform: translate(-4.800000190734863px, 74.6849365234375px) translate(4.800000190734863px, -74.6849365234375px) translate(0px, 0px);transform: translate(-4.800000190734863px, 74.6849365234375px) translate(4.800000190734863px, -74.6849365234375px) translate(0px, 0px);}50%{-webkit-transform: translate(-4.800000190734863px, 74.6849365234375px) translate(4.800000190734863px, -74.6849365234375px) translate(-20px, 0px);transform: translate(-4.800000190734863px, 74.6849365234375px) translate(4.800000190734863px, -74.6849365234375px) translate(-20px, 0px);}100%{-webkit-transform: translate(-4.800000190734863px, 74.6849365234375px) translate(4.800000190734863px, -74.6849365234375px) translate(0px, 0px);transform: translate(-4.800000190734863px, 74.6849365234375px) translate(4.800000190734863px, -74.6849365234375px) translate(0px, 0px);}}@keyframes kf_el_gFLwCx9ktP_an_wFtgjufbN{0%{-webkit-transform: translate(-4.800000190734863px, 74.6849365234375px) translate(4.800000190734863px, -74.6849365234375px) translate(0px, 0px);transform: translate(-4.800000190734863px, 74.6849365234375px) translate(4.800000190734863px, -74.6849365234375px) translate(0px, 0px);}50%{-webkit-transform: translate(-4.800000190734863px, 74.6849365234375px) translate(4.800000190734863px, -74.6849365234375px) translate(-20px, 0px);transform: translate(-4.800000190734863px, 74.6849365234375px) translate(4.800000190734863px, -74.6849365234375px) translate(-20px, 0px);}100%{-webkit-transform: translate(-4.800000190734863px, 74.6849365234375px) translate(4.800000190734863px, -74.6849365234375px) translate(0px, 0px);transform: translate(-4.800000190734863px, 74.6849365234375px) translate(4.800000190734863px, -74.6849365234375px) translate(0px, 0px);}}@-webkit-keyframes kf_el_49BJrH_g1Ks_an_VSKOoHSBi{0%{-webkit-transform: translate(-22.299999237060547px, 73.0787353515625px) translate(22.299999237060547px, -73.0787353515625px) translate(0px, 0px);transform: translate(-22.299999237060547px, 73.0787353515625px) translate(22.299999237060547px, -73.0787353515625px) translate(0px, 0px);}50%{-webkit-transform: translate(-22.299999237060547px, 73.0787353515625px) translate(22.299999237060547px, -73.0787353515625px) translate(20px, 0px);transform: translate(-22.299999237060547px, 73.0787353515625px) translate(22.299999237060547px, -73.0787353515625px) translate(20px, 0px);}100%{-webkit-transform: translate(-22.299999237060547px, 73.0787353515625px) translate(22.299999237060547px, -73.0787353515625px) translate(0px, 0px);transform: translate(-22.299999237060547px, 73.0787353515625px) translate(22.299999237060547px, -73.0787353515625px) translate(0px, 0px);}}@keyframes kf_el_49BJrH_g1Ks_an_VSKOoHSBi{0%{-webkit-transform: translate(-22.299999237060547px, 73.0787353515625px) translate(22.299999237060547px, -73.0787353515625px) translate(0px, 0px);transform: translate(-22.299999237060547px, 73.0787353515625px) translate(22.299999237060547px, -73.0787353515625px) translate(0px, 0px);}50%{-webkit-transform: translate(-22.299999237060547px, 73.0787353515625px) translate(22.299999237060547px, -73.0787353515625px) translate(20px, 0px);transform: translate(-22.299999237060547px, 73.0787353515625px) translate(22.299999237060547px, -73.0787353515625px) translate(20px, 0px);}100%{-webkit-transform: translate(-22.299999237060547px, 73.0787353515625px) translate(22.299999237060547px, -73.0787353515625px) translate(0px, 0px);transform: translate(-22.299999237060547px, 73.0787353515625px) translate(22.299999237060547px, -73.0787353515625px) translate(0px, 0px);}}#el_hQSf4ny_5 *{-webkit-animation-duration: 6s;animation-duration: 6s;-webkit-animation-iteration-count: infinite;animation-iteration-count: infinite;-webkit-animation-timing-function: cubic-bezier(0, 0, 1, 1);animation-timing-function: cubic-bezier(0, 0, 1, 1);}#el_n7SpuIzTkt{fill: #157EC0;}#el_gFLwCx9ktP{fill: #1574A5;}#el_bJuae0W3rm{fill: #FAFBFC;}#el_0fFCSA8td_{fill: #9B9B9B;}#el_Ic3-0Zlq5D{fill: #B4B4B4;}#el_UW--k1D4Cz{fill: #010101;}#el_lOZEgwBwBJ{fill: #FAFBFC;}#el_wXIpYixliq{fill: #FAFBFC;}#el_Qyc9nHR5dy{fill: #9B9B9B;}#el_x2GikuO55B{fill: #010101;}#el_baD6NdXnv_{fill: #A2CAE3;}#el_qSj_VYWmSt{fill: #FAFBFC;}#el_G0tFWiEUag0{fill: #A2CAE3;}#el_wJZ7t71qEJc{fill: #A2CAE3;}#el_O3T97HAQKZu{fill: #A2CAE3;}#el_x4c-B1yUK4I{fill: #A2CAE3;}#el_U2DgWaFw03Y{fill: #A2CAE3;}#el_idjVI69B3Xg{fill: #A2CAE3;}#el_p1hYQndc-18{fill: #A2CAE3;}#el_II81BrWhRNt{fill: #A2CAE3;}#el_1YnK6FwwfRW{fill: #A2CAE3;}#el_ysfrnoi4XLo{fill: #A2CAE3;}#el_R3ct_5a6sOn{fill: #A2CAE3;}#el_VnwFk0ITRhY{fill: #A2CAE3;}#el_G6eTeRTciHS{fill: #A2CAE3;}#el_ajUVuOzmET-{fill: #A2CAE3;}#el_5J5nw4ir6Fv{fill: #A2CAE3;}#el_0uMuUjkjahu{fill: #A2CAE3;}#el_v0tTOGu-7ba{fill: #010101;}#el_q4Ell0XV-sS{fill: #A2CAE3;}#el_4IYznMzVRXa{fill: #A2CAE3;}#el_41r7d4l3SPn{fill: #A2CAE3;}#el_GWHxt7OlArY{fill: #A2CAE3;}#el_FZjdbvNQoO6{fill: #A2CAE3;}#el_gEoCNCjBp2d{fill: #A2CAE3;}#el_PAQ9tzDoEQY{fill: #FCC49E;}#el_NXoVT_gkvbw{fill: #1357A2;}#el_QCfn7A_W8UU{fill: #FCC49E;}#el_MmafsoFJMWd{fill: #1357A2;}#el_gUylN5jn9gy{fill: #F9AD80;}#el_paAhQsfxulf{fill: #F9AD80;}#el_GB_68dG5feS{fill: #FCC49E;}#el_I7-0SSAPjcY{fill: #1D1D1B;}#el_6xQXaxCxAw1{fill: #1D1D1B;}#el_iAF6DpHyhj0{fill: #1D1D1B;}#el_YHNzMuK_sy4{fill: #575757;}#el_L3KQkQ-Tu96{fill: #C89D67;}#el_q3NKbk2uKzK{fill: #B1804B;}#el_vGmB82hJ7ua{fill: #B1804B;}#el_J9uht4YBLgn{fill: #956237;}#el_v7Be1QHu8UN{fill: #956237;}#el_AMBEZjyci_L{fill: #956237;}#el_K7cv10K3MKQ{fill: #956237;}#el_nhtAyqi9TdB{fill: #956237;}#el_6G254L-FKXN{fill: #956237;}#el_0boyJZyiowd{fill: #7F5022;}#el_GMEOCkf0r9b{fill: #F7CB17;}#el_49BJrH_g1Ks{fill: #156788;}#el_49BJrH_g1Ks_an_VSKOoHSBi{-webkit-animation-fill-mode: backwards;animation-fill-mode: backwards;-webkit-transform: translate(-22.299999237060547px, 73.0787353515625px) translate(22.299999237060547px, -73.0787353515625px) translate(0px, 0px);transform: translate(-22.299999237060547px, 73.0787353515625px) translate(22.299999237060547px, -73.0787353515625px) translate(0px, 0px);-webkit-animation-name: kf_el_49BJrH_g1Ks_an_VSKOoHSBi;animation-name: kf_el_49BJrH_g1Ks_an_VSKOoHSBi;-webkit-animation-timing-function: cubic-bezier(0.42, 0, 0.58, 1);animation-timing-function: cubic-bezier(0.42, 0, 0.58, 1);}#el_gFLwCx9ktP_an_wFtgjufbN{-webkit-animation-fill-mode: backwards;animation-fill-mode: backwards;-webkit-transform: translate(-4.800000190734863px, 74.6849365234375px) translate(4.800000190734863px, -74.6849365234375px) translate(0px, 0px);transform: translate(-4.800000190734863px, 74.6849365234375px) translate(4.800000190734863px, -74.6849365234375px) translate(0px, 0px);-webkit-animation-name: kf_el_gFLwCx9ktP_an_wFtgjufbN;animation-name: kf_el_gFLwCx9ktP_an_wFtgjufbN;-webkit-animation-timing-function: cubic-bezier(0.42, 0, 0.58, 1);animation-timing-function: cubic-bezier(0.42, 0, 0.58, 1);}#el_91MpsX5aYz_an_cUfb-VvCt{-webkit-animation-fill-mode: backwards;animation-fill-mode: backwards;-webkit-transform: translate(213.14999389648438px, 54.25266647338867px) rotate(0deg) translate(-213.14999389648438px, -54.25266647338867px);transform: translate(213.14999389648438px, 54.25266647338867px) rotate(0deg) translate(-213.14999389648438px, -54.25266647338867px);-webkit-animation-name: kf_el_91MpsX5aYz_an_cUfb-VvCt;animation-name: kf_el_91MpsX5aYz_an_cUfb-VvCt;-webkit-animation-timing-function: cubic-bezier(0.42, 0, 0.58, 1);animation-timing-function: cubic-bezier(0.42, 0, 0.58, 1);}</style>

<rect id="el_n7SpuIzTkt" width="300" height="100"/>
<g id="el_gFLwCx9ktP_an_wFtgjufbN" data-animator-group="true" data-animator-type="0"><path id="el_gFLwCx9ktP" d="M339.3,82.8c-15.8-4.9-27-5.3-34.4-4.7c-13,1.1-16.1,5.2-28,5.2c-13,0-14.8-5.1-28.5-5.6&#10;&#9;c-15.4-0.6-19,5.5-34.4,5.3c-17-0.2-19.3-7.9-35.8-8.3c-16.7-0.4-20.9,7.3-39.7,7.1c-13.9-0.1-14.4-4.3-29.4-4.6&#10;&#9;c-17.7-0.3-22.6,5.4-38.5,4.2c-12-0.8-12.7-4.3-23.6-4.2c-12,0.1-15.4,4.3-26.5,4.6C14.5,82,6,81-4.8,75.7v15.8h344V82.8z"/></g>
<g id="el_91MpsX5aYz_an_cUfb-VvCt" data-animator-group="true" data-animator-type="1"><g id="el_91MpsX5aYz">
	<path d="M246.7,67.6h-9.1c-1.8,0-3.3-1.5-3.3-3.3v-2.7c0-1.8,1.5-3.3,3.3-3.3h9.1c1.8,0,3.3,1.5,3.3,3.3v2.7&#10;&#9;&#9;C250,66.1,248.5,67.6,246.7,67.6z" id="el_bJuae0W3rm"/>
	<path d="M243.9,68.8c-0.1-0.2-0.1-0.3-0.1-0.5v-0.8h-1.7h-0.1h-1.5v0.8c0,0.2,0,0.3-0.1,0.5c-0.1,0.2-0.2,0.4-0.5,0.4&#10;&#9;&#9;h2.1h0.1h2.3C244.2,69.3,244,69,243.9,68.8z" id="el_0fFCSA8td_"/>
	<path d="M274,70.3h-46.7c-0.3,0-0.5-0.2-0.5-0.5l0,0c0-0.3,0.2-0.5,0.5-0.5H274c0.3,0,0.5,0.2,0.5,0.5l0,0&#10;&#9;&#9;C274.5,70,274.3,70.3,274,70.3z" id="el_Ic3-0Zlq5D"/>
	<path d="M246.7,66.1h-9.1c-1.8,0-3.3-1.5-3.3-3.3V60c0-1.8,1.5-3.3,3.3-3.3h9.1c1.8,0,3.3,1.5,3.3,3.3v2.7&#10;&#9;&#9;C250,64.6,248.5,66.1,246.7,66.1z" id="el_UW--k1D4Cz"/>
	<rect x="234.9" y="57.2" width="14.6" height="8.3" id="el_lOZEgwBwBJ"/>
	<path d="M263.2,67.6h-9.1c-1.8,0-3.3-1.5-3.3-3.3v-2.7c0-1.8,1.5-3.3,3.3-3.3h9.1c1.8,0,3.3,1.5,3.3,3.3v2.7&#10;&#9;&#9;C266.6,66.1,265.1,67.6,263.2,67.6z" id="el_wXIpYixliq"/>
	<path d="M260.5,68.8c-0.1-0.2-0.1-0.3-0.1-0.5v-0.8h-1.7h-0.1h-1.5v0.8c0,0.2,0,0.3-0.1,0.5c-0.1,0.2-0.2,0.4-0.5,0.4&#10;&#9;&#9;h2.1h0.1h2.3C260.7,69.3,260.5,69,260.5,68.8z" id="el_Qyc9nHR5dy"/>
	<path d="M263.2,66.1h-9.1c-1.8,0-3.3-1.5-3.3-3.3V60c0-1.8,1.5-3.3,3.3-3.3h9.1c1.8,0,3.3,1.5,3.3,3.3v2.7&#10;&#9;&#9;C266.6,64.6,265.1,66.1,263.2,66.1z" id="el_x2GikuO55B"/>
	<rect x="251.4" y="57.2" width="14.6" height="8.3" id="el_baD6NdXnv_"/>
	<g id="el_jNLulFBion">
		<path d="M260.5,64.4h-3.4c-1.7,0-3.1-1.4-3.1-3.1v0c0-1.7,1.4-3.1,3.1-3.1h3.4c1.7,0,3.1,1.4,3.1,3.1v0&#10;&#9;&#9;&#9;C263.6,63,262.2,64.4,260.5,64.4z" id="el_qSj_VYWmSt"/>
		<g id="el_wOJ3eX0HAA">
			<rect x="257.4" y="60.7" width="1.7" height="0.4" id="el_G0tFWiEUag0"/>
			<rect x="259.7" y="62.4" width="2.8" height="0.4" id="el_wJZ7t71qEJc"/>
			<rect x="261.1" y="63.2" width="1.4" height="0.4" id="el_O3T97HAQKZu"/>
			<rect x="257.4" y="62.4" width="1.6" height="0.4" id="el_x4c-B1yUK4I"/>
			<rect x="257.4" y="61.5" width="2.3" height="0.4" id="el_U2DgWaFw03Y"/>
			<rect x="257.4" y="63.2" width="1" height="0.4" id="el_idjVI69B3Xg"/>
			<polygon points="259,63.5 260.5,63.5 260.5,63.5 260.5,63.2 259,63.2 &#9;&#9;&#9;" id="el_p1hYQndc-18"/>
			<rect x="260.5" y="61.5" width="1.4" height="0.4" id="el_II81BrWhRNt"/>
			<rect x="259.7" y="60.7" width="1.4" height="0.4" id="el_1YnK6FwwfRW"/>
			<rect x="255.3" y="58.8" width="0.5" height="0.4" id="el_ysfrnoi4XLo"/>
			<rect x="256.1" y="58.8" width="0.5" height="0.4" id="el_R3ct_5a6sOn"/>
			<rect x="257" y="58.8" width="0.5" height="0.4" id="el_VnwFk0ITRhY"/>
			<rect x="255.3" y="60.7" width="0.7" height="0.4" id="el_G6eTeRTciHS"/>
			<rect x="255.3" y="61.5" width="0.7" height="0.4" id="el_ajUVuOzmET-"/>
			<rect x="255.3" y="62.4" width="0.7" height="0.4" id="el_5J5nw4ir6Fv"/>
			<rect x="255.3" y="63.2" width="0.7" height="0.4" id="el_0uMuUjkjahu"/>
		</g>
	</g>
	<path d="M243.2,63.9C243.2,63.9,243.2,63.9,243.2,63.9l0.3-0.3l0.2,0.4c0,0,0,0,0,0c0,0,0,0,0,0l0.2-0.1c0,0,0,0,0,0&#10;&#9;&#9;c0,0,0,0,0,0l-0.2-0.4h0.4c0,0,0,0,0,0c0,0,0,0,0,0l-0.9-0.8c0,0,0,0,0,0c0,0,0,0,0,0L243.2,63.9C243.2,63.9,243.2,63.9,243.2,63.9&#10;&#9;&#9;z" id="el_v0tTOGu-7ba"/>
	<g id="el_NxviO-6q_ct">
		<rect x="236.3" y="59" width="2.3" height="1.2" id="el_q4Ell0XV-sS"/>
		<rect x="239.1" y="59" width="6.2" height="1.2" id="el_4IYznMzVRXa"/>
		<rect x="236.3" y="60.7" width="9.1" height="0.3" id="el_41r7d4l3SPn"/>
		<rect x="236.3" y="61.6" width="9.1" height="0.3" id="el_GWHxt7OlArY"/>
		<rect x="236.3" y="62.5" width="4.7" height="0.3" id="el_FZjdbvNQoO6"/>
		<rect x="236.3" y="63.4" width="4.7" height="0.3" id="el_gEoCNCjBp2d"/>
	</g>
	<g id="el_G581toBzJNH">
		<path d="M251.8,68.8l-8.3,0.5c-0.7,0-1.3-0.5-1.4-1.2l0,0c0-0.7,0.5-1.3,1.2-1.4l8.3-0.5c0.4,0,0.8,0.3,0.8,0.7l0.1,1&#10;&#9;&#9;&#9;C252.6,68.4,252.2,68.8,251.8,68.8z" id="el_PAQ9tzDoEQY"/>
		<path d="M246.5,63.9l-4.1,2.9c-0.5,0.4-0.7,1.1-0.3,1.7l0,0c0.3,0.4,0.8,0.6,1.3,0.5c1.8-0.4,6-1.2,5.9-1.4&#10;&#9;&#9;&#9;c0-0.1-0.5-1.8-0.9-3.1C248.1,63.7,247.2,63.4,246.5,63.9z" id="el_NXoVT_gkvbw"/>
		<path d="M249.3,68.8l8.3,0.5c0.7,0,1.3-0.5,1.4-1.2l0,0c0-0.7-0.5-1.3-1.2-1.4l-8.3-0.5c-0.4,0-0.8,0.3-0.8,0.7&#10;&#9;&#9;&#9;l-0.1,1C248.5,68.4,248.8,68.8,249.3,68.8z" id="el_QCfn7A_W8UU"/>
		<path d="M254.6,63.9l4.1,2.9c0.5,0.4,0.7,1.1,0.3,1.7l0,0c-0.3,0.4-0.8,0.6-1.3,0.5c-1.8-0.4-6-1.2-5.9-1.4&#10;&#9;&#9;&#9;c0-0.1,0.5-1.8,0.9-3.1C252.9,63.7,253.9,63.4,254.6,63.9z" id="el_MmafsoFJMWd"/>
		<g id="el_U0uNG1-7IIm">
			<path d="M247.3,58.6c-0.4,0-0.8,0.4-0.8,0.8c0,0.5,0.4,0.8,0.8,0.8s0.8-0.4,0.8-0.8&#10;&#9;&#9;&#9;&#9;C248.1,58.9,247.7,58.6,247.3,58.6z" id="el_gUylN5jn9gy"/>
			<path d="M253.4,58.6c-0.4,0-0.8,0.4-0.8,0.8c0,0.5,0.4,0.8,0.8,0.8s0.8-0.4,0.8-0.8&#10;&#9;&#9;&#9;&#9;C254.2,58.9,253.8,58.6,253.4,58.6z" id="el_paAhQsfxulf"/>
			<path d="M250.1,63.9L250.1,63.9c0.1,0,0.2,0,0.2,0l0,0c0.3,0,0.5,0,0.7-0.1c0,0,0,0,0,0c1.3-0.3,2.3-1.6,2.3-3.1V57&#10;&#9;&#9;&#9;&#9;c0-1.7-1.4-1.5-3-1.5l0,0c-1.7,0-3-0.3-3,1.5v3.7C247.3,62.4,248.5,63.8,250.1,63.9z" id="el_GB_68dG5feS"/>
			<path d="M252.8,59.5v1h-1.1c0,0-0.3-0.7-1.4-0.7c-1.1,0-1.4,0.7-1.4,0.7h-1.1v-1c0-0.4-0.4-0.5-0.6-0.6v1.8&#10;&#9;&#9;&#9;&#9;c0,1.7,1.2,3,2.8,3.2l0,0c0.1,0,0.2,0,0.3,0c0.1,0,0.2,0,0.3,0l0,0c1.6-0.1,2.8-1.5,2.8-3.2v-1.8C253.1,59,252.8,59.1,252.8,59.5&#10;&#9;&#9;&#9;&#9;z" id="el_I7-0SSAPjcY"/>
			<path d="M252.6,54.3c-0.8-0.1-2.1-0.1-3.1,0.6c0,0,0,0-0.1,0.1h-0.7c-0.8,0-1.4,0.5-1.4,1.2V57v1.6v1.9&#10;&#9;&#9;&#9;&#9;c0.1,0,0.3-0.1,0.3-0.3v-2.7c0,0,0-0.9,0.8-0.9h1.8h0h2c0.8,0,0.9,0.8,0.9,0.8v2.7c0,0.1,0.1,0.3,0.3,0.3v-1.9V57v-0.6l0-1.1&#10;&#9;&#9;&#9;&#9;C253.4,54.8,253.1,54.4,252.6,54.3z" id="el_6xQXaxCxAw1"/>
		</g>
		<rect x="247.5" y="56.2" width="5.9" height="5.1" id="el_iAF6DpHyhj0"/>
	</g>
	<path d="M252,79.8h-3.3c-2.3,0-4.2-2-4.2-4.5l1.1-9.1c0.4-2.4,2.6-4,4.9-4h0c2.3,0,4.6,1.6,4.9,4l0.9,9&#10;&#9;&#9;C256.2,77.8,254.3,79.8,252,79.8z" id="el_YHNzMuK_sy4"/>
	<g id="el_unI1AXbuNIb">
		<g id="el_S6y6Uag1uBm">
			<g id="el_wPhGnXcXNbF">
				<path id="el_L3KQkQ-Tu96" d="M214.3,67.4c0,0,4.8,13.5,8.2,15.7c6,4,42.8,5,50.1,1.4c2.7-1.3,9.4-16.2,9.4-16.2&#10;&#9;&#9;&#9;&#9;&#9;S266,72,248.3,72C230.6,72,214.3,67.4,214.3,67.4z"/>
			</g>
		</g>
		<g id="el_5YExpjcNGi5">
			<g id="el_vi90-aLDhRM">
				<path id="el_q3NKbk2uKzK" d="M214.3,67.4c0,0,4.8,13.5,8.2,15.7c1.4,0.9,4.5,1.7,8.5,2.3c0,0-5.3-3.5-8.3-6.7&#10;&#9;&#9;&#9;&#9;&#9;C219.6,75.6,214.3,67.4,214.3,67.4z"/>
			</g>
		</g>
		<g id="el_GiD7pT4yRY0">
			<g id="el_zgQJMkSzJyI">
				<path id="el_vGmB82hJ7ua" d="M250.6,86.8c8-0.1,19.2-0.8,22-2.2c2.7-1.3,9.4-16.2,9.4-16.2s-8.3,7-12.2,10&#10;&#9;&#9;&#9;&#9;&#9;C265.9,81.4,250.6,86.8,250.6,86.8z"/>
			</g>
		</g>
		<g id="el_zr_zGqBNJ14">
			<g id="el_FalC4RusGs3">
				<path id="el_J9uht4YBLgn" d="M247.3,74.4c-10.1,0-20.3-1.1-30.2-3.3c-0.2,0-0.2-0.2-0.2-0.3c0-0.2,0.2-0.2,0.3-0.2&#10;&#9;&#9;&#9;&#9;&#9;c10.7,2.4,21.8,3.5,32.8,3.2c6.6-0.1,18-1,28.3-2.5c0.2,0,0.3,0.1,0.3,0.2c0,0.2-0.1,0.3-0.2,0.3c-10.4,1.5-21.7,2.4-28.4,2.5&#10;&#9;&#9;&#9;&#9;&#9;C249.2,74.4,248.2,74.4,247.3,74.4z"/>
			</g>
		</g>
		<g id="el_PvoAbQkocM3">
			<g id="el_JHQ6_BbsP_S">
				<path id="el_v7Be1QHu8UN" d="M215.1,67.9c-0.2,0-0.3-0.2-0.2-0.3c0-0.2,0.2-0.2,0.4-0.2c11.6,2.4,23.7,3.8,35.6,4&#10;&#9;&#9;&#9;&#9;&#9;c7.3,0.1,19.4-1.7,30.6-3.2c0.2,0,0.3,0.1,0.3,0.2c0,0.2-0.1,0.3-0.3,0.3c-11,1.9-24.4,3.7-31.7,3.6&#10;&#9;&#9;&#9;&#9;&#9;C235.9,72,225.8,70.1,215.1,67.9z"/>
			</g>
		</g>
		<path id="el_AMBEZjyci_L" d="M277.7,74c0-0.2-0.2-0.3-0.3-0.2c-10,1.5-20.9,2.4-27.3,2.5c-10.6,0.2-21.3-0.9-31.6-3.2&#10;&#9;&#9;&#9;c-0.2,0-0.3,0.1-0.3,0.2c0,0.1,0,0.4,0,0.5c0,0.2,0.1,0.3,0.2,0.3c9.5,2.2,19.3,3.3,29.1,3.3c0.9,0,1.8,0,2.7,0&#10;&#9;&#9;&#9;c6.4-0.1,17.4-1,27.4-2.5c0.2,0,0.3-0.2,0.2-0.3C277.7,74.3,277.7,74.1,277.7,74z"/>
		<path id="el_K7cv10K3MKQ" d="M276.7,76.4c0-0.2-0.2-0.3-0.3-0.2c-9.5,1.5-20,2.4-26.1,2.5c-10.2,0.2-20.3-0.9-30.3-3.2&#10;&#9;&#9;&#9;c-0.2,0-0.3,0.1-0.3,0.2c0,0.1,0,0.4,0,0.5c0,0.2,0.1,0.3,0.2,0.3c9.1,2.2,18.5,3.3,27.8,3.3c0.9,0,1.7,0,2.6,0&#10;&#9;&#9;&#9;c6.2-0.1,16.6-1,26.2-2.5c0.2,0,0.3-0.2,0.2-0.3C276.6,76.7,276.7,76.5,276.7,76.4z"/>
		<path id="el_nhtAyqi9TdB" d="M275.8,78.7c0-0.2-0.2-0.3-0.3-0.2c-9.2,1.5-19.3,2.4-25.2,2.5c-9.8,0.2-19.7-0.9-29.2-3.2&#10;&#9;&#9;&#9;c-0.2,0-0.3,0.1-0.3,0.2c0,0.1,0,0.4,0,0.5c0,0.2,0.1,0.3,0.2,0.3c8.8,2.2,17.9,3.3,26.9,3.3c0.8,0,1.7,0,2.5,0&#10;&#9;&#9;&#9;c5.9-0.1,16.1-1,25.3-2.5c0.2,0,0.3-0.2,0.2-0.3C275.8,79.1,275.8,78.9,275.8,78.7z"/>
		<path id="el_6G254L-FKXN" d="M273.9,81.1c0-0.2-0.2-0.3-0.3-0.2c-8.7,1.5-18.2,2.4-23.8,2.5c-9.2,0.2-18.5-0.9-27.5-3.2&#10;&#9;&#9;&#9;c-0.2,0-0.3,0.1-0.3,0.2c0,0.1,0,0.8,0,0.9c0,0.2,0.1,0.3,0.2,0.3c8.3,2.2,16.8,3.3,25.3,3.3c0.8,0,1.6,0,2.3,0&#10;&#9;&#9;&#9;c5.6-0.1,15.1-1,23.8-2.5c0.2,0,0.3-0.2,0.2-0.3C273.9,81.9,274,81.3,273.9,81.1z"/>
		<g id="el_C-csnO7veth">
			<g id="el_Y_-opVWC6ar">
				<path id="el_0boyJZyiowd" d="M255.8,87.2c-3.5,0-8,0-10-0.1c-0.5,0-1,0-1.5,0c-0.6,0-1.2,0-1.7,0&#10;&#9;&#9;&#9;&#9;&#9;c-4.9-0.1-10.6-0.2-15.8-1.8c-2.4-0.7-4.5-1.4-6.1-3.1c-1.4-1.4-2.3-3.4-3.1-5.2l-0.1-0.3c-0.5-1.1-0.9-2.4-1.3-3.7&#10;&#9;&#9;&#9;&#9;&#9;c-0.8-2.4-1.5-4.9-2.9-6.3c-0.2-0.3-0.2-0.7,0-0.9c0.3-0.2,0.7-0.2,0.9,0c1.5,1.6,2.3,4.3,3.1,6.8c0.4,1.3,0.8,2.6,1.3,3.6&#10;&#9;&#9;&#9;&#9;&#9;l0.1,0.3c0.8,1.7,1.6,3.5,2.9,4.8c1.4,1.4,3.3,2.1,5.5,2.7c5.1,1.5,10.6,1.6,15.5,1.7c0.5,0,1.1,0,1.7,0c0.5,0,1.1,0,1.5,0&#10;&#9;&#9;&#9;&#9;&#9;c3.6,0,12.8,0.1,14.3,0c0.7-0.1,1.5-0.1,2.3-0.1c0.7,0,1.5-0.1,2.2-0.1c2.4-0.2,5.4-0.5,7.6-1.8c2.3-1.3,3.5-3.8,4.7-6.5&#10;&#9;&#9;&#9;&#9;&#9;c0.2-0.4,0.4-0.8,0.6-1.3c0.8-1.7,1.4-2.9,2-4c0.6-1.2,1.1-2.3,2-4c0.2-0.3,0.6-0.5,0.9-0.3c0.3,0.2,0.5,0.6,0.3,0.9&#10;&#9;&#9;&#9;&#9;&#9;c-0.8,1.7-1.4,2.9-2,4c-0.6,1.2-1.1,2.3-2,4c-0.2,0.4-0.4,0.8-0.6,1.2c-1.3,2.7-2.6,5.5-5.2,7c-2.4,1.4-5.6,1.8-8.1,2&#10;&#9;&#9;&#9;&#9;&#9;c-0.7,0.1-1.5,0.1-2.3,0.1c-0.7,0-1.5,0.1-2.2,0.1C259.7,87.2,257.9,87.2,255.8,87.2z"/>
			</g>
		</g>
		<g id="el_lgtOrNgnlvr">
			<path id="el_GMEOCkf0r9b" d="M247.7,74.1c-1.2,0-2.5-0.3-3.3-1c-0.4-0.3-0.8-0.7-1.1-1c-1.4,1-3.2,1.5-4.8,1.2&#10;&#9;&#9;&#9;&#9;c-0.6-0.1-1.2-0.3-1.7-0.6c-0.7-0.3-1.6-0.6-2.3-1.2c-0.2,0.1-0.3,0.2-0.5,0.3c-0.8,0.4-1.7,1-2.5,1c-0.9,0-3.1,0-4.5-0.7&#10;&#9;&#9;&#9;&#9;c-0.9-0.5-2-1.1-2.3-2c-1,0.4-1.9,0.6-2.9,0.7l-0.3,0c-1.2,0-2.5,0-3.7-0.5c-0.7-0.3-1.5-1.1-2.3-2.2c-0.1-0.1,0-0.2,0-0.3&#10;&#9;&#9;&#9;&#9;c0.1-0.1,0.2,0,0.3,0c0.8,1.1,1.5,1.8,2.2,2.1c1.1,0.5,2.3,0.5,3.5,0.5l0.3,0c1,0,1.9-0.3,3-0.7c0.1,0,0.1,0,0.2,0&#10;&#9;&#9;&#9;&#9;c0,0,0.1,0.1,0.1,0.1c0.1,0.6,0.9,1.2,2.2,1.9c1.3,0.7,3.4,0.7,4.3,0.7c0.7,0,1.5-0.5,2.3-0.9c0.2-0.1,0.4-0.2,0.6-0.3&#10;&#9;&#9;&#9;&#9;c0.1,0,0.2,0,0.2,0c0.7,0.6,1.6,0.9,2.3,1.2c0.5,0.2,1.1,0.4,1.6,0.5c1.5,0.3,3.2-0.1,4.6-1.2c0.1-0.1,0.2,0,0.2,0&#10;&#9;&#9;&#9;&#9;c0.4,0.4,0.8,0.8,1.2,1.1c1.5,1.3,4.8,0.9,5.6,0.4l0.2-0.1c0.5-0.4,1.1-0.7,1.5-1.3c0.1-0.1,0.1-0.1,0.2-0.1&#10;&#9;&#9;&#9;&#9;c0.1,0,0.1,0.1,0.1,0.2c0,0.2,0.6,0.9,0.9,1.2c1.1,0.8,3.1,0.2,3.8,0c0.1,0,0.2-0.1,0.2-0.1c0.6-0.1,1.1-0.7,1.6-1.2&#10;&#9;&#9;&#9;&#9;c0.1-0.1,0.3-0.3,0.4-0.4c0.1-0.1,0.2-0.1,0.2,0c1.5,1.1,3.1,1.6,4.6,1.4c1.6-0.2,3.2-1,4.2-2.3c0.1-0.1,0.1-0.1,0.2-0.1&#10;&#9;&#9;&#9;&#9;c0.3,0.1,0.5,0.3,0.8,0.4c0.2,0.1,0.4,0.3,0.6,0.4c0.3,0.1,0.7,0.2,1.1,0.3c1.8,0.1,3.6-0.7,4.4-2.1c0-0.1,0.1-0.1,0.2-0.1h0&#10;&#9;&#9;&#9;&#9;c0.1,0,0.1,0,0.2,0.1l0.2,0.3c0.4,0.6,1.4,0.7,2.3,0.5c0.5-0.1,1-0.5,1.4-0.8l1.6-1.2c0.1-0.1,0.2,0,0.3,0c0.1,0.1,0,0.2,0,0.3&#10;&#9;&#9;&#9;&#9;l-1.6,1.2c-0.4,0.3-0.9,0.7-1.5,0.9c-0.9,0.3-2.2,0.2-2.7-0.7l0-0.1c-1,1.3-2.8,2.1-4.6,2c-0.5,0-0.9-0.1-1.2-0.3&#10;&#9;&#9;&#9;&#9;c-0.2-0.1-0.5-0.3-0.7-0.4c-0.2-0.1-0.4-0.3-0.6-0.4c-1.1,1.3-2.7,2.1-4.4,2.3c-1.5,0.2-3.2-0.3-4.7-1.4&#10;&#9;&#9;&#9;&#9;c-0.1,0.1-0.2,0.2-0.3,0.3c-0.5,0.5-1.1,1.1-1.8,1.3c-0.1,0-0.1,0-0.2,0.1c-0.8,0.2-2.9,0.8-4.2-0.1c-0.2-0.1-0.7-0.6-1-1.1&#10;&#9;&#9;&#9;&#9;c-0.4,0.4-0.8,0.7-1.3,1.1l-0.2,0.1C250,73.8,248.9,74.1,247.7,74.1z"/>
		</g>
	</g>
</g></g>
<g id="el_49BJrH_g1Ks_an_VSKOoHSBi" data-animator-group="true" data-animator-type="0"><path id="el_49BJrH_g1Ks" d="M-22.3,86c15.6-8,26.7-8.5,33.9-7.5c12.8,1.7,15.9,8.4,27.6,8.4c12.9-0.1,14.6-8.2,28.1-9&#10;&#9;c15.2-1,18.8,8.9,33.9,8.5c16.8-0.4,19-12.7,35.4-13.3c16.5-0.6,20.6,11.7,39.3,11.4c13.7-0.2,14.2-6.9,29.1-7.3&#10;&#9;c17.5-0.5,22.3,8.6,38,6.8c11.8-1.4,12.6-6.9,23.3-6.8c11.8,0.1,15.2,6.9,26.2,7.3c5.9,0.2,14.3-1.4,25-9.9V100H-22.3V86z"/></g>
</svg>